<?xml version="1.0" encoding="UTF-8"?>
<svg version="1.1" xmlns="http://www.w3.org/2000/svg" width="3076" height="1325">
<path d="M0 0 C0 50.16 0 100.32 0 152 C-23.12464233 156.62492847 -23.12464233 156.62492847 -34.10865307 158.5377655 C-34.91856241 158.67911612 -35.72847174 158.82046673 -36.56292379 158.96610069 C-37.40188306 159.11247789 -38.24084233 159.25885509 -39.10522461 159.40966797 C-40.92737785 159.72944441 -42.74949381 160.04943333 -44.57157612 160.36961365 C-49.48636997 161.2326487 -54.40166839 162.09277697 -59.31706905 162.95234823 C-64.57705568 163.87270302 -69.8365664 164.79576991 -75.09613037 165.71853638 C-84.06607076 167.29194208 -93.0362935 168.86372928 -102.00668335 170.43457031 C-114.80130845 172.67521999 -127.59512309 174.92047195 -140.38874209 177.1668582 C-179.92868482 184.1093122 -219.46910225 191.04871462 -259.02190775 197.91756213 C-264.34897363 198.84282208 -269.67571678 199.76991948 -275.00221252 200.69845581 C-275.72309077 200.82411891 -276.44396902 200.94978201 -277.18669206 201.07925308 C-280.69954588 201.69168364 -284.21235521 202.30436861 -287.72512913 202.91725731 C-295.59552739 204.28995413 -303.46761684 205.65253137 -311.34102821 207.00785637 C-316.09770484 207.82889657 -320.8528071 208.65877063 -325.60749054 209.49126816 C-327.74856445 209.86423689 -329.89029203 210.23347775 -332.03273773 210.59848404 C-352.19984226 213.48604565 -352.19984226 213.48604565 -367.25 226.125 C-369.4844968 229.79595902 -370.12441534 232.40635057 -370.15771484 236.61987305 C-370.16797699 237.55482101 -370.17823914 238.48976898 -370.18881226 239.45304871 C-370.19611359 240.46240982 -370.20341492 241.47177094 -370.2109375 242.51171875 C-370.23901577 244.65300231 -370.26768029 246.79427825 -370.296875 248.93554688 C-370.33805554 252.30818388 -370.37494658 255.68068008 -370.40136719 259.0534668 C-370.42909021 262.31068289 -370.47497221 265.56725384 -370.5234375 268.82421875 C-370.52669037 269.82345871 -370.52994324 270.82269867 -370.53329468 271.85221863 C-370.65273349 278.70651789 -371.44564338 284.52238194 -375.62109375 290.20703125 C-385.52907044 298.96440419 -400.97091845 299.35157824 -413.59814453 301.5534668 C-415.55730003 301.89836738 -417.51638946 302.24364346 -419.47541809 302.58926392 C-424.76117912 303.52066841 -430.04786321 304.44673006 -435.33475351 305.37170005 C-440.87430399 306.34172333 -446.41303584 307.31639955 -451.95187378 308.29048157 C-461.23986778 309.92320858 -470.52843073 311.55266471 -479.81738281 313.17993164 C-490.56549345 315.06283816 -501.31286136 316.94993564 -512.0598079 318.83947438 C-523.50598424 320.8519393 -534.95261657 322.86180011 -546.39942694 324.8706553 C-549.70011913 325.45006251 -553.00073346 326.02991159 -556.30133438 326.60983849 C-561.47374078 327.51848452 -566.64645516 328.4253567 -571.81941795 329.33082962 C-573.72150945 329.66403962 -575.62349906 329.99783183 -577.52538109 330.33223534 C-580.11179037 330.78688916 -582.69855649 331.2394534 -585.28543091 331.69145203 C-586.0457185 331.82558886 -586.80600609 331.95972569 -587.5893327 332.09792727 C-592.77160882 333 -592.77160882 333 -595 333 C-595 361.05 -595 389.1 -595 418 C-584.44 416.02 -573.88 414.04 -563 412 C-556.79530779 410.89088754 -550.5906754 409.79034727 -544.37939453 408.72021484 C-542.76526704 408.44032556 -541.15117854 408.16021138 -539.53712463 407.87989807 C-536.14657887 407.2913187 -532.75584555 406.70383789 -529.36496353 406.11719894 C-523.99058825 405.18695608 -518.617142 404.25141873 -513.24386597 403.31484985 C-512.32620677 403.1549244 -511.40854758 402.99499894 -510.46308053 402.83022726 C-508.59201771 402.50414099 -506.7209566 402.178045 -504.84989715 401.85193944 C-492.39848117 399.682043 -479.94645466 397.51578162 -467.4921875 395.36230469 C-459.00331903 393.89444603 -450.51584153 392.41881583 -442.02987182 390.93428767 C-437.5664106 390.15377504 -433.10235099 389.37717129 -428.63653946 388.61021042 C-424.45665606 387.89231129 -420.27868478 387.16417027 -416.1019268 386.4283123 C-414.57806212 386.16169095 -413.05354593 385.89876054 -411.52833366 385.63995934 C-398.90731586 383.49491772 -388.55985987 381.7220276 -380.75 370.875 C-378.5155032 367.20404098 -377.87558466 364.59364943 -377.84228516 360.38012695 C-377.83202301 359.44517899 -377.82176086 358.51023102 -377.81118774 357.54695129 C-377.80023575 356.03290962 -377.80023575 356.03290962 -377.7890625 354.48828125 C-377.76098423 352.34699769 -377.73231971 350.20572175 -377.703125 348.06445312 C-377.66194446 344.69181612 -377.62505342 341.31931992 -377.59863281 337.9465332 C-377.57090979 334.68931711 -377.52502779 331.43274616 -377.4765625 328.17578125 C-377.47330963 327.17654129 -377.47005676 326.17730133 -377.46670532 325.14778137 C-377.34726651 318.29348211 -376.55435662 312.47761806 -372.37890625 306.79296875 C-362.71793166 298.25391379 -347.93265901 297.80668859 -335.61376953 295.65966797 C-333.77073776 295.33516396 -331.92777297 295.0102793 -330.08486938 294.6850481 C-325.07149016 293.80140643 -320.05719255 292.92308054 -315.04271936 292.04567122 C-309.68042134 291.10642054 -304.3190072 290.16215019 -298.95748901 289.21846008 C-288.59454882 287.3952373 -278.2308367 285.5764409 -267.86685169 283.75916785 C-255.94137493 281.66789596 -244.01670134 279.57206275 -232.09210825 277.47575891 C-216.50999746 274.73650072 -200.92774868 271.99803034 -185.34503174 269.26222229 C-157.28166445 264.33513494 -129.21992602 259.39896923 -101.16074896 254.44807434 C-96.89716444 253.69584085 -92.63353335 252.94387144 -88.36990356 252.19189453 C-69.61396384 248.88389352 -69.61396384 248.88389352 -50.85845947 245.57342529 C-44.47073326 244.44550329 -38.08280284 243.3187466 -31.69459856 242.19353527 C-28.50196773 241.63114868 -25.30947482 241.06799896 -22.11718369 240.5036869 C-18.72162281 239.90349472 -15.32570731 239.30535271 -11.9296875 238.70776367 C-10.44291347 238.44417462 -10.44291347 238.44417462 -8.92610359 238.17526054 C-8.03251577 238.01846384 -7.13892796 237.86166714 -6.21826172 237.70011902 C-5.44570038 237.56381671 -4.67313904 237.4275144 -3.87716675 237.28708172 C-2 237 -2 237 0 237 C0 287.49 0 337.98 0 390 C-20.480625 393.58875 -20.480625 393.58875 -41.375 397.25 C-82.90245295 404.52743965 -124.4289725 411.81019034 -165.95474356 419.09722078 C-171.93450312 420.14655895 -177.91427056 421.19585225 -183.89404297 422.24511719 C-185.0577607 422.44931503 -186.22147844 422.65351286 -187.42046034 422.86389852 C-203.90960821 425.75714867 -220.39934446 428.64702107 -236.8896091 431.53389883 C-250.75802462 433.96182329 -264.62577477 436.39350903 -278.4926548 438.83018875 C-286.41648808 440.22242703 -294.34090596 441.61123171 -302.26617008 442.99530232 C-308.20106016 444.03215178 -314.13483482 445.07524224 -320.06818962 446.12084579 C-322.43798375 446.53745902 -324.80813543 446.95204481 -327.17868233 447.36435318 C-330.36304924 447.91849168 -333.54602587 448.48002637 -336.72875977 449.04345703 C-337.6335054 449.19904587 -338.53825104 449.3546347 -339.47041321 449.51493835 C-349.04877017 451.22813903 -358.26511865 452.99455401 -365.1875 460.3125 C-369.80033541 467.15222146 -370.43151897 472.59714445 -370.40625 480.68359375 C-370.42250427 482.20509789 -370.42250427 482.20509789 -370.43908691 483.75733948 C-370.47321129 486.98412503 -370.48891168 490.21055812 -370.5 493.4375 C-370.51462443 497.68653386 -370.54840267 501.93478877 -370.59375 506.18359375 C-370.59072876 507.14841171 -370.58770752 508.11322968 -370.58459473 509.10728455 C-370.66426957 516.33932404 -371.82056239 522.37337106 -376.25 528.3125 C-382.16098018 534.08913973 -389.6889881 534.89941815 -397.55395508 536.24560547 C-398.70539851 536.44972329 -399.85684195 536.65384111 -401.0431776 536.86414433 C-404.20424436 537.42277427 -407.36652759 537.97377538 -410.52950478 538.52146411 C-413.89991735 539.10699927 -417.26857678 539.70245902 -420.63745117 540.29676819 C-427.12468877 541.43963637 -433.61344181 542.57365324 -440.10278094 543.70452064 C-447.5440919 545.00164599 -454.98383166 546.30767016 -462.42344701 547.6144799 C-472.02848069 549.30155777 -481.63382667 550.9868366 -491.2401886 552.66633606 C-491.95995917 552.79217542 -492.67972975 552.91801477 -493.42131156 553.04766744 C-494.86008892 553.29920581 -496.29886635 553.55074383 -497.73764384 553.8022815 C-511.20660211 556.1571884 -524.67266447 558.52794834 -538.13538551 560.91828918 C-543.3521117 561.84433079 -548.56924898 562.76805383 -553.78634167 563.69202805 C-557.66283328 564.37874114 -561.53911538 565.0665928 -565.41494751 565.75701904 C-569.57398337 566.49768234 -573.73417431 567.23163799 -577.89453125 567.96484375 C-579.07466797 568.17617447 -580.25480469 568.38750519 -581.47070312 568.60523987 C-582.53716064 568.7921489 -583.60361816 568.97905792 -584.70239258 569.17163086 C-585.61378494 569.33320175 -586.52517731 569.49477264 -587.46418762 569.66123962 C-590 570 -590 570 -595 570 C-594.67 598.05 -594.34 626.1 -594 655 C-566.69227406 650.19495361 -566.69227406 650.19495361 -539.38476562 645.38867188 C-528.21466688 643.42238769 -517.04454684 641.45622522 -505.87426758 639.4909668 C-497.73132067 638.05832558 -489.58845935 636.62519896 -481.44569117 635.19154221 C-477.15372734 634.43589349 -472.86172736 633.68045175 -468.56962395 632.92559624 C-467.34942919 632.71096441 -467.34942919 632.71096441 -466.10458404 632.49199659 C-464.47878934 632.20602834 -462.85298349 631.92012346 -461.22716635 631.63428277 C-457.25748695 630.93593495 -453.28828405 630.23505702 -449.32000637 629.52878475 C-447.7530569 629.25012835 -446.18609146 628.97156178 -444.61911011 628.69308472 C-443.45509933 628.4862196 -443.45509933 628.4862196 -442.26757318 628.27517539 C-437.17874675 627.37476925 -432.08542455 626.50481655 -426.98857611 625.65103787 C-423.42113735 625.05137946 -419.85587024 624.43937988 -416.29080498 623.82578671 C-414.59857311 623.53770034 -412.90538229 623.25518034 -411.2112025 622.97877967 C-395.72665229 620.69048201 -395.72665229 620.69048201 -383.0625 612.125 C-378.37084711 605.01643502 -377.56757858 599.69165427 -377.59375 591.31640625 C-377.57749573 589.79490211 -377.57749573 589.79490211 -377.56091309 588.24266052 C-377.52678871 585.01587497 -377.51108832 581.78944188 -377.5 578.5625 C-377.48537557 574.31346614 -377.45159733 570.06521123 -377.40625 565.81640625 C-377.40927124 564.85158829 -377.41229248 563.88677032 -377.41540527 562.89271545 C-377.33573043 555.66067596 -376.17943761 549.62662894 -371.75 543.6875 C-365.57084622 537.64878154 -357.48701426 536.95986915 -349.27416992 535.55322266 C-347.95753716 535.32127974 -346.64103904 535.08857145 -345.32466316 534.85517502 C-342.44190538 534.34582373 -339.55824772 533.84203295 -336.67379189 533.34238815 C-331.90721432 532.51672095 -327.14277098 531.67913779 -322.37846375 530.84048462 C-315.20549595 529.57913482 -308.03147736 528.32390203 -300.85687256 527.07189941 C-289.41542992 525.07487096 -277.9765465 523.06341248 -266.53807282 521.04945707 C-246.59214633 517.53763357 -226.64517111 514.0318144 -206.69726562 510.53125 C-205.4926689 510.31985744 -204.28807217 510.10846488 -203.04697251 509.89066648 C-196.92819792 508.81691494 -190.80940947 507.74324237 -184.69061279 506.6696167 C-166.36042393 503.45331824 -148.03038012 500.23619352 -129.70052707 497.01798177 C-123.81509501 495.98469697 -117.92961864 494.95166583 -112.04404068 493.91921234 C-80.43719108 488.37620672 -80.43719108 488.37620672 -48.84274495 482.76305747 C-46.53436756 482.35019826 -44.22591099 481.9377845 -41.91743374 481.52548409 C-35.23204963 480.33103557 -28.54753378 479.13214713 -21.86457825 477.92416382 C-19.63394637 477.52433526 -17.40329125 477.1246363 -15.17260742 476.72509766 C-14.19298979 476.54609043 -13.21337215 476.36708321 -12.20406914 476.18265152 C-11.31452097 476.02413586 -10.4249728 475.86562019 -9.50846863 475.70230103 C-8.75087344 475.56532618 -7.99327826 475.42835133 -7.21272564 475.28722572 C-5 475 -5 475 0 475 C0 525.16 0 575.32 0 627 C-23.12375356 631.62475071 -23.12375356 631.62475071 -34.55612278 633.61234379 C-35.81929394 633.8324209 -35.81929394 633.8324209 -37.10798371 634.05694401 C-37.98025192 634.2088727 -38.85252012 634.36080139 -39.7512207 634.51733398 C-41.64206773 634.84855529 -43.53287685 635.1799931 -45.4236517 635.51162624 C-50.52391279 636.40558448 -55.6246818 637.29661228 -60.72555065 638.18709517 C-66.17523117 639.13901522 -71.62442525 640.0937121 -77.07366943 641.04812622 C-86.35373721 642.6731763 -95.63407898 644.29665348 -104.9145813 645.91921997 C-118.12927961 648.22978151 -131.3431628 650.54497913 -144.55681121 652.86153638 C-223.46305452 666.69493287 -223.46305452 666.69493287 -259.69345397 672.99575597 C-260.85535348 673.1978251 -260.85535348 673.1978251 -262.04072571 673.40397644 C-262.80239998 673.53644042 -263.56407426 673.66890439 -264.34882957 673.80538243 C-273.49463828 675.3963374 -282.639231 676.99425368 -291.78356457 678.59366322 C-299.19226053 679.8889438 -306.60249365 681.1748804 -314.01410484 682.45336914 C-318.46314436 683.22307839 -322.91059745 684.00164333 -327.35761261 684.78295517 C-329.34652967 685.13053086 -331.33609427 685.4744275 -333.32637787 685.81409073 C-350.61743743 688.13776333 -350.61743743 688.13776333 -365 697 C-369.47216274 704.04381283 -370.71464564 709.94758316 -370.6015625 718.1953125 C-370.61357193 719.74374344 -370.61357193 719.74374344 -370.62582397 721.32345581 C-370.64871964 724.59104661 -370.63949485 727.85737804 -370.625 731.125 C-370.6211391 734.39952553 -370.62468607 737.67350289 -370.64559937 740.94796753 C-370.6575908 742.97586841 -370.65518251 745.00392419 -370.63589478 747.0317688 C-370.66274947 753.84967916 -371.46754505 759.55219988 -375.62109375 765.20703125 C-384.33933216 772.91282907 -396.51441885 773.57234917 -407.62060547 775.49487305 C-408.95645141 775.72938527 -410.29222971 775.96428303 -411.62794685 776.19952774 C-415.27058985 776.83995271 -418.91414864 777.4750217 -422.55788422 778.10919642 C-426.51498663 778.79893782 -430.47118316 779.49383949 -434.42749023 780.18812561 C-441.3001189 781.39350746 -448.17327903 782.59581775 -455.04681396 783.79602051 C-465.96179333 785.70195274 -476.87575043 787.61369685 -487.78955078 789.52636719 C-491.55648189 790.18646697 -495.32342043 790.84652433 -499.09036255 791.50656128 C-500.50670646 791.75473604 -500.50670646 791.75473604 -501.95166337 792.00792444 C-508.77029511 793.20261248 -515.58908305 794.39640648 -522.40792847 795.58987427 C-550.60650046 800.52566826 -578.80197145 805.47892595 -606.99574423 810.44205689 C-611.22469516 811.18648521 -615.45366724 811.93079336 -619.68263948 812.67510062 C-636.13977258 815.57159872 -652.59686892 818.46830582 -669.0537374 821.36630708 C-678.77011688 823.07732366 -688.48661214 824.78767928 -698.20334983 826.49666053 C-703.51953732 827.43170762 -708.8355587 828.36769116 -714.15144813 829.30443126 C-717.38652845 829.87425722 -720.62177305 830.44314587 -723.85706735 831.01175559 C-725.33980812 831.27254007 -726.82248206 831.53370494 -728.30508208 831.79528844 C-730.32290693 832.15124737 -732.34097155 832.50581534 -734.35910034 832.86004639 C-735.48047331 833.05743786 -736.60184628 833.25482933 -737.75720024 833.45820236 C-741.16272498 834.02718762 -744.5819719 834.51171027 -748 835 C-748 627.76 -748 420.52 -748 207 C-577 177 -577 177 -522.15234375 167.39453125 C-505.80298289 164.5264275 -505.80298289 164.5264275 -489.45385742 161.65698242 C-482.15520184 160.37612573 -474.85599305 159.09848007 -467.55639648 157.82299805 C-459.14882208 156.35390155 -450.7419957 154.88060929 -442.33605772 153.40217704 C-438.03294172 152.6454872 -433.72951726 151.89069463 -429.42512321 151.14130592 C-425.52567748 150.46238626 -421.6272563 149.77787203 -417.72956276 149.08896637 C-416.32300054 148.84136875 -414.91607995 148.59579617 -413.50876617 148.35250664 C-396.65711273 145.82768189 -396.65711273 145.82768189 -382.8125 136.6875 C-378.19966459 129.84777854 -377.56848103 124.40285555 -377.59375 116.31640625 C-377.57749573 114.79490211 -377.57749573 114.79490211 -377.56091309 113.24266052 C-377.52678871 110.01587497 -377.51108832 106.78944188 -377.5 103.5625 C-377.48537557 99.31346614 -377.45159733 95.06521123 -377.40625 90.81640625 C-377.40927124 89.85158829 -377.41229248 88.88677032 -377.41540527 87.89271545 C-377.33573043 80.66067596 -376.17943761 74.62662894 -371.75 68.6875 C-366.4058092 63.46476808 -359.92096365 62.37788185 -352.79467773 61.16699219 C-351.87760921 61.004046 -350.9605407 60.84109982 -350.01568222 60.67321587 C-346.90636509 60.12293497 -343.79503108 59.58502886 -340.68359375 59.046875 C-338.38628798 58.64294425 -336.08911735 58.23824434 -333.79206848 57.83285522 C-328.72175747 56.93981432 -323.65053506 56.05214528 -318.57849121 55.16900635 C-311.02116489 53.85305964 -303.46557778 52.527337 -295.91035962 51.19934678 C-283.20888775 48.96699846 -270.50625896 46.74130068 -257.8030746 44.51872039 C-231.19227829 39.86259825 -204.58549452 35.18369202 -177.97871327 30.50469017 C-166.57448647 28.49923567 -155.17017796 26.49424583 -143.76586914 24.48925781 C-142.5071655 24.26796329 -141.24846186 24.04666878 -139.95161569 23.81866837 C-112.63364917 19.01593879 -85.31502449 14.21696071 -57.99596763 9.42043734 C-54.59348201 8.82300897 -51.19101481 8.2254759 -47.78855324 7.62791061 C-42.50070232 6.69923013 -37.21280625 5.77080724 -31.92487252 4.84259844 C-29.99727189 4.50420191 -28.06968613 4.16572063 -26.14211643 3.82714796 C-23.51969339 3.36654688 -20.89721391 2.90626848 -18.27471924 2.44607544 C-17.13828672 2.24636172 -17.13828672 2.24636172 -15.97889596 2.04261339 C-13.98626848 1.6931438 -11.99315243 1.34646309 -10 1 C-8.92183392 0.80517469 -7.84366783 0.61034939 -6.73283005 0.40962029 C-4 0 -4 0 0 0 Z " fill="#B8D6E2" transform="translate(1912,0)"/>
<path d="M0 0 C136.95 0 273.9 0 415 0 C415 19.8 415 39.6 415 60 C301.81 60 188.62 60 72 60 C72 71.55 72 83.1 72 95 C173.31 95 274.62 95 379 95 C379 113.81 379 132.62 379 152 C277.69 152 176.38 152 72 152 C72 163.22 72 174.44 72 186 C185.19 186 298.38 186 415 186 C415 205.8 415 225.6 415 246 C278.05 246 141.1 246 0 246 C0 164.82 0 83.64 0 0 Z " fill="#B8D6E2" transform="translate(0,1079)"/>
<path d="M0 0 C1.55087971 -0.00445668 1.55087971 -0.00445668 3.13309032 -0.0090034 C6.56145771 -0.0176022 9.98978983 -0.01919112 13.41816711 -0.02069092 C15.89165825 -0.02532549 18.36514869 -0.030351 20.83863831 -0.03573608 C27.53567504 -0.04880386 34.23269818 -0.05533249 40.92974448 -0.05974674 C45.12511872 -0.06252338 49.32049071 -0.06676331 53.51586342 -0.07125092 C65.16999891 -0.08343543 76.82413262 -0.09373507 88.47827435 -0.09712601 C89.22230471 -0.09734557 89.96633507 -0.09756514 90.73291181 -0.09779136 C91.47855987 -0.09800964 92.22420792 -0.09822791 92.99245137 -0.09845281 C94.50300896 -0.09889625 96.01356655 -0.09934281 97.52412415 -0.09979248 C98.64801863 -0.10012463 98.64801863 -0.10012463 99.79461805 -0.10046348 C111.90496433 -0.1044021 124.0152501 -0.12183111 136.12557306 -0.145152 C148.60932304 -0.16899446 161.09304283 -0.18133374 173.5768159 -0.18249393 C180.56556394 -0.1834037 187.55423318 -0.18897706 194.54295921 -0.20731354 C201.12995431 -0.22453703 207.71682797 -0.22587204 214.30384827 -0.21717453 C216.70090956 -0.21641266 219.09797936 -0.22063228 221.49501991 -0.23063278 C263.12410282 -0.39390788 304.66753168 6.19229251 337.04438782 34.14044189 C337.71598938 34.71020752 338.38759094 35.27997314 339.07954407 35.86700439 C357.34401884 52.70659106 367.05943142 77.94841157 370.04438782 102.14044189 C370.15524719 102.94610596 370.26610657 103.75177002 370.38032532 104.58184814 C374.12693464 136.93432592 369.28207753 172.74508778 349.04438782 199.14044189 C346.16421576 202.59764324 343.15361132 205.88911494 340.04438782 209.14044189 C339.21874329 210.06083252 339.21874329 210.06083252 338.37641907 210.99981689 C319.91295427 230.87653456 291.00371145 239.92705055 265.04438782 244.14044189 C264.02812883 244.30819217 263.01186985 244.47594244 261.96481514 244.64877605 C249.07668344 246.52171796 236.25226938 246.4296913 223.25093079 246.4151001 C220.67346042 246.41945472 218.09599135 246.42464035 215.51852417 246.43058777 C209.27821198 246.4432528 203.03794298 246.44513869 196.7976201 246.44278751 C191.71666444 246.44099449 186.63572173 246.4427749 181.55476761 246.44701195 C180.82781662 246.44760714 180.10086564 246.44820233 179.35188583 246.44881555 C177.87439146 246.45002748 176.3968971 246.45124162 174.91940273 246.45245793 C161.1025905 246.46330247 147.28580274 246.46118599 133.46898915 246.45507308 C120.87834451 246.44990994 108.28777739 246.46114895 95.69714807 246.4801713 C82.71720558 246.49962889 69.7372996 246.50779169 56.75734246 246.50404805 C49.49097715 246.50214754 42.22467771 246.50450977 34.95832443 246.51876259 C28.11764593 246.53204645 21.27712365 246.52930978 14.43644524 246.5163517 C11.94298307 246.51400625 9.44950977 246.51664653 6.95606041 246.52497482 C-31.84545579 246.64510718 -70.02781774 240.01714612 -100.95561218 215.14044189 C-101.55889343 214.67895752 -102.16217468 214.21747314 -102.78373718 213.74200439 C-123.27746467 197.67060757 -133.98395323 169.91565633 -137.24565125 144.9175415 C-141.26575372 109.12926367 -136.04987605 72.49831514 -113.2676239 43.73370361 C-90.49866616 16.08386769 -54.7616959 4.4413597 -20.17866105 0.85224271 C-13.43696946 0.26597225 -6.76542661 -0.00623507 0 0 Z M-47.95561218 79.14044189 C-48.98686218 79.86231689 -50.01811218 80.58419189 -51.08061218 81.32794189 C-60.03365717 89.13698669 -64.46965034 101.65548451 -65.95561218 113.14044189 C-67.18464188 131.40732254 -65.26772729 148.22165063 -53.33061218 162.76544189 C-38.50287633 178.61482808 -16.55016882 181.34572527 4.04438782 182.14044189 C11.416864 182.31448345 18.79190942 182.28774665 26.16596985 182.28570557 C28.34935564 182.28870434 30.5327409 182.2921085 32.71612549 182.29588318 C38.60283393 182.30465434 44.48952781 182.30705837 50.37624216 182.30769897 C54.06640553 182.30841339 57.75656529 182.3105551 61.44672775 182.31319618 C74.35558555 182.32242686 87.26443308 182.32653393 100.17329407 182.32574463 C112.14971005 182.32514447 124.12606644 182.33569005 136.10247338 182.35148829 C146.43256817 182.36462256 156.76264832 182.36992607 167.09275138 182.36928922 C173.24127983 182.36903596 179.3897681 182.37179126 185.53828812 182.38246727 C191.32834639 182.39224798 197.1183269 182.39216014 202.90838814 182.38495064 C205.01483717 182.38391706 207.1212913 182.38619317 209.2277317 182.3923111 C250.12916365 182.81349449 250.12916365 182.81349449 285.27095032 164.13262939 C297.42332723 150.48128088 299.72665298 133.80751862 299.04438782 116.14044189 C297.72881626 100.65428523 291.38618137 88.04882743 279.57173157 78.02325439 C265.57972054 67.59953057 247.78279345 64.98418649 230.75047302 65 C229.23406339 64.99554332 229.23406339 64.99554332 227.68701923 64.9909966 C224.31280677 64.98235246 220.93862998 64.98080497 217.56440735 64.97930908 C215.13926112 64.97467776 212.71411561 64.96965268 210.28897095 64.96426392 C203.70786829 64.9511655 197.126773 64.94466216 190.5456605 64.94025326 C186.42808689 64.93748255 182.31051561 64.93324363 178.19294357 64.92874908 C166.76971395 64.91656026 155.34648618 64.90626136 143.9232502 64.90287399 C143.19312408 64.90265443 142.46299797 64.90243486 141.71074682 64.90220864 C140.97896784 64.90199036 140.24718886 64.90177209 139.49323475 64.90154719 C138.01061129 64.90110374 136.52798784 64.90065718 135.04536438 64.90020752 C134.3099469 64.89998609 133.57452942 64.89976466 132.81682657 64.89953652 C120.92135847 64.89559511 109.02595187 64.87815949 97.13050748 64.854848 C84.88761053 64.83105144 72.64474431 64.81866832 60.40182388 64.81750607 C53.54011232 64.81659377 46.67848085 64.81095489 39.81679153 64.79268646 C33.35380949 64.77553908 26.89093824 64.77409447 20.42793846 64.78282547 C18.06825415 64.78359105 15.7085614 64.77931713 13.34889793 64.76936722 C-8.44024566 64.68294896 -29.88776755 65.48836377 -47.95561218 79.14044189 Z " fill="#B8D6E2" transform="translate(1080.9556121826172,1078.8595581054688)"/>
<path d="M0 0 C2.46319736 -0.00435832 4.92639336 -0.00954516 7.3895874 -0.01548767 C13.33658524 -0.02739705 19.2835411 -0.03004356 25.23054631 -0.02768741 C30.07538813 -0.02589004 34.9202164 -0.0276839 39.76505661 -0.03191185 C40.80714435 -0.03280463 40.80714435 -0.03280463 41.87028437 -0.03371545 C43.28254268 -0.03492746 44.69480098 -0.03614159 46.10705929 -0.03735783 C59.29594269 -0.04818737 72.48480042 -0.04609302 85.67368524 -0.03997298 C97.67615419 -0.03481057 109.67854182 -0.04604964 121.6809947 -0.0650712 C134.07347704 -0.08455676 146.46592111 -0.09268681 158.85841882 -0.08894795 C165.78838746 -0.0870517 172.71828701 -0.08936686 179.64824295 -0.10366249 C186.17379667 -0.11699023 192.69922962 -0.1141726 199.22478485 -0.1012516 C201.59724104 -0.0989148 203.96970904 -0.10151408 206.34215164 -0.10987473 C246.49807073 -0.24100031 288.32060797 5.19134758 319.82568359 32.2746582 C320.49857422 32.80317383 321.17146484 33.33168945 321.86474609 33.8762207 C341.8610239 50.04850913 352.58051961 77.0251015 355.59228516 101.97729492 C359.24724365 137.95340312 354.79785497 174.37254266 331.34912109 203.27856445 C319.85800331 216.92204331 306.01253295 226.10726821 289.82568359 233.2746582 C289.20000488 233.55293457 288.57432617 233.83121094 287.9296875 234.11791992 C279.64419111 237.71097606 271.19701809 240.06964927 262.38818359 242.0246582 C261.49607178 242.22341553 260.60395996 242.42217285 259.68481445 242.62695312 C242.4689155 246.21853787 225.54058768 246.56909341 208.02636719 246.54931641 C205.46022393 246.55367183 202.89408196 246.55885773 200.32794189 246.56480408 C194.11884733 246.57746065 187.9097962 246.57935608 181.70069091 246.57700381 C176.64455798 246.57520986 171.58843806 246.57699319 166.53230667 246.58122826 C165.80855526 246.58182345 165.08480385 246.58241863 164.33912057 246.58303186 C162.86807047 246.58424381 161.39702037 246.58545794 159.92597027 246.58667424 C146.17350383 246.59751549 132.421062 246.59540385 118.6685942 246.58928939 C106.14012055 246.58412637 93.61172479 246.59536554 81.08326654 246.61438761 C68.16317819 246.63385109 55.24312652 246.64200699 42.32302344 246.63826436 C35.09185255 246.63636475 27.86074786 246.63871701 20.62958908 246.6529789 C13.82172502 246.666272 7.01401787 246.66351825 0.20615387 246.65056801 C-2.27398865 246.64822439 -4.75414239 246.65085604 -7.234272 246.65919113 C-26.72004311 246.71988933 -46.23079489 245.77541136 -65.11181641 240.5246582 C-66.52889893 240.14168579 -66.52889893 240.14168579 -67.97460938 239.75097656 C-76.44385533 237.37012469 -84.30937596 234.18995607 -92.17431641 230.2746582 C-93.33447266 229.7074707 -94.49462891 229.1402832 -95.68994141 228.5559082 C-102.90691103 224.86350514 -109.06741872 220.5858689 -115.17431641 215.2746582 C-116.42341797 214.24211914 -116.42341797 214.24211914 -117.69775391 213.1887207 C-137.84053593 196.02087264 -149.59811064 169.48364326 -151.97949219 143.33227539 C-153.13870032 125.13938991 -153.68715034 106.03484338 -149.17431641 88.2746582 C-149.00802734 87.60950195 -148.84173828 86.9443457 -148.67041016 86.2590332 C-143.82294333 67.44368049 -134.45871624 51.35847325 -121.17431641 37.2746582 C-120.62130859 36.65719727 -120.06830078 36.03973633 -119.49853516 35.40356445 C-103.5457898 18.26326981 -79.12383049 9.54854447 -56.86181641 4.5246582 C-55.9987085 4.32590088 -55.13560059 4.12714355 -54.24633789 3.92236328 C-36.36820826 0.13022978 -18.19281925 -0.02153597 0 0 Z M-68.48681641 84.3996582 C-80.72410327 99.12460708 -81.41206426 117.04263225 -80.17431641 135.2746582 C-78.50200506 148.49234981 -72.50262633 159.85769935 -62.17431641 168.2746582 C-50.47247893 176.77221038 -37.24502836 180.17619329 -23.03491211 181.39520264 C-22.08151853 181.47861145 -21.12812494 181.56202026 -20.14584064 181.64795661 C-9.52439983 182.50666983 1.0705803 182.55604572 11.72021484 182.53344727 C13.91433833 182.53616649 16.1084609 182.53973259 18.30258179 182.54406738 C24.19102144 182.553083 30.07938997 182.54969246 35.96783066 182.54330921 C42.17411215 182.53819247 48.38038815 182.54295625 54.58666992 182.54608154 C65.00261511 182.54970483 75.41853181 182.54496533 85.83447266 182.53540039 C97.82124812 182.52451903 109.8079255 182.52804577 121.79470158 182.5390532 C132.14615232 182.548173 142.49758275 182.54938855 152.84903622 182.54417586 C159.00529532 182.54108182 165.16152258 182.54057527 171.31777954 182.54724884 C177.10956584 182.55309046 182.90126565 182.54890281 188.69304276 182.53746033 C190.79949425 182.53484975 192.90595321 182.53551579 195.01240158 182.53998566 C205.6506979 182.56045259 216.18693139 182.30920063 226.7878418 181.36395264 C227.68623622 181.28386278 228.58463064 181.20377293 229.51024914 181.12125611 C244.95844372 179.60126273 262.50221092 174.21018685 272.80224609 161.9152832 C283.88857143 145.83748438 286.96948739 127.80485013 283.61083984 108.5871582 C281.29120989 98.80085871 277.72229922 90.65040713 270.82568359 83.2746582 C270.26494141 82.66106445 269.70419922 82.0474707 269.12646484 81.4152832 C255.51220832 68.06681476 234.69396181 65.11739471 216.48707581 65.13421631 C215.47134694 65.13124519 214.45561807 65.12827406 213.40910953 65.12521291 C210.01874361 65.11656838 206.62841317 65.11502125 203.23803711 65.11352539 C200.80141627 65.10889413 198.36479616 65.10386905 195.92817688 65.09848022 C189.31615061 65.08538196 182.70413168 65.07887863 176.09209561 65.07446957 C171.95576873 65.0716991 167.81944414 65.06746024 163.68311882 65.06296539 C152.20927484 65.0507771 140.73543269 65.04047776 129.26158237 65.0370903 C128.16156444 65.03676095 128.16156444 65.03676095 127.03932392 65.03642495 C126.30431453 65.03620667 125.56930515 65.03598839 124.81202275 65.0357635 C123.32284264 65.03532005 121.83366253 65.03487349 120.34448242 65.03442383 C119.23647682 65.03409168 119.23647682 65.03409168 118.10608726 65.03375283 C106.15497827 65.02981046 94.20393045 65.01237164 82.25284506 64.98906431 C69.95458233 64.96527549 57.6563502 64.952885 45.35806412 64.95172238 C38.46452653 64.9508097 31.57106864 64.94516104 24.67755318 64.92690277 C18.18584722 64.90976826 11.69425158 64.90830508 5.202528 64.91704178 C2.83113576 64.91780797 0.45973517 64.9135252 -1.91163635 64.90358353 C-25.5970265 64.81017758 -50.92045583 66.23444443 -68.48681641 84.3996582 Z " fill="#B8D6E2" transform="translate(2220.17431640625,1078.725341796875)"/>
<path d="M0 0 C74.0621118 0 74.0621118 0 119.01171875 25.64453125 C126.68949704 29.98391809 134.48724327 34.09756469 142.27764893 38.22988892 C150.37506781 42.52527436 158.44297068 46.86183019 166.4387207 51.34448242 C172.59323168 54.79040314 178.79343663 58.14888175 185 61.5 C192.74363225 65.68219186 200.46121629 69.90481589 208.14379883 74.19799805 C214.29429894 77.62698935 220.48871646 80.97176418 226.6875 84.3125 C234.5544532 88.55414346 242.36265761 92.88253844 250.125 97.3125 C260.38724685 103.16307377 270.78940268 108.72725832 281.22363281 114.26220703 C288.67169752 118.21465492 296.08367675 122.22102882 303.4387207 126.34448242 C309.59324205 129.79040895 315.7937785 133.14823323 322 136.5 C325.03657021 138.14372541 328.07264512 139.78836016 331.10839844 141.43359375 C332.98076504 142.44787137 334.85377138 143.4609693 336.72753906 144.47265625 C339.19710366 145.80836049 341.66168645 147.15281093 344.125 148.5 C344.84042969 148.88478516 345.55585938 149.26957031 346.29296875 149.66601562 C346.96199219 150.03404297 347.63101563 150.40207031 348.3203125 150.78125 C348.89023926 151.09126953 349.46016602 151.40128906 350.04736328 151.72070312 C363.3420655 160.43091063 364.0017134 168.12789137 374 185 C374.33 123.95 374.66 62.9 375 0 C399.75 0 424.5 0 450 0 C450 81.18 450 162.36 450 246 C375.16126943 246 375.16126943 246 346.5 229.5 C339.56135842 225.54037333 332.59172249 221.67852952 325.5 218 C317.40177736 213.79939132 309.47164795 209.33436543 301.546875 204.81640625 C295.58672079 201.42995499 289.58491388 198.15629036 283.5 195 C275.40177736 190.79939132 267.47164795 186.33436543 259.546875 181.81640625 C253.58672079 178.42995499 247.58491388 175.15629036 241.5 172 C233.40177736 167.79939132 225.47164795 163.33436543 217.546875 158.81640625 C211.58671486 155.42995162 205.58483806 152.1564411 199.5 149 C192.64010266 145.43980925 185.8983482 141.70844441 179.1875 137.875 C170.20941775 132.74990945 161.1355486 127.83594081 152 123 C141.91229574 117.66003162 131.89453073 112.22850833 122.0168457 106.50512695 C117.65049241 103.9895791 113.29926172 101.62300575 108.7109375 99.53515625 C98.60790657 94.8764559 92.5888318 90.60715189 87.3984375 80.61328125 C83.91039222 73.9041909 79.89043011 67.48405018 76 61 C75.67 122.05 75.34 183.1 75 246 C50.25 246 25.5 246 0 246 C0 164.82 0 83.64 0 0 Z " fill="#B8D6E2" transform="translate(2626,1079)"/>
<path d="M0 0 C12.45646125 -0.32520537 24.9119041 -0.57354109 37.37175465 -0.72537041 C43.15846589 -0.79826631 48.9422618 -0.89702144 54.72729492 -1.05615234 C60.3167167 -1.20893005 65.90334635 -1.29210747 71.49469566 -1.3282814 C73.62123258 -1.35403688 75.74762613 -1.40433985 77.87296486 -1.48022079 C94.06280119 -2.03494999 94.06280119 -2.03494999 98.92864609 1.33620453 C102.2508224 4.54643651 104.61109489 8.19119297 106.88484764 12.18572617 C108.76634767 15.24679332 111.12393288 17.80945805 113.5 20.5 C117.28577607 24.91214722 120.9328734 29.40943949 124.5 34 C128.57394142 39.24197422 132.78020638 44.34432765 137.09033203 49.39331055 C140.4040871 53.27948455 143.6194222 57.22960252 146.79296875 61.23046875 C149.56873295 64.71368435 152.37689901 68.16987203 155.1875 71.625 C155.74002441 72.30433594 156.29254883 72.98367188 156.86181641 73.68359375 C158.0000758 75.0829158 159.13842323 76.48216623 160.27685547 77.88134766 C161.98899189 79.98646524 163.69981969 82.09263866 165.41015625 84.19921875 C170.09819197 89.97319906 174.78700195 95.74635822 179.5 101.5 C184.78950668 107.9574452 190.04902661 114.43918576 195.31054688 120.91943359 C198.0395869 124.28025428 200.76982464 127.6401016 203.5 131 C206.79750415 135.05808325 210.09469763 139.1164172 213.390625 143.17578125 C213.9487085 143.8620459 214.50679199 144.54831055 215.08178711 145.25537109 C216.18289705 146.61318645 217.28015428 147.97413637 218.37329102 149.33837891 C220.79379332 152.34954795 223.2295375 155.2916802 225.88671875 158.09765625 C227.14935547 159.47244141 227.14935547 159.47244141 228.4375 160.875 C229.17871094 161.63554688 229.91992188 162.39609375 230.68359375 163.1796875 C232.78580788 167.68354092 231.28227422 171.35507287 230 176 C229.75531982 176.94633301 229.51063965 177.89266602 229.25854492 178.86767578 C228.49069053 181.794769 227.6883306 184.71024106 226.875 187.625 C226.59785156 188.62917969 226.32070313 189.63335938 226.03515625 190.66796875 C225.35989931 193.11286455 224.68147179 195.55683066 224 198 C234.29243993 188.01974327 244.16548827 178.11216626 252.75390625 166.62207031 C254.90020146 163.82818603 257.20297127 161.17013993 259.5 158.5 C263.21343906 154.16339514 266.80719151 149.75646035 270.3125 145.25 C274.99411267 139.23319207 279.80706209 133.33522988 284.66503906 127.46020508 C290.27878207 120.67094123 295.83494317 113.83618967 301.38232422 106.99267578 C303.0239671 104.97047699 304.66961516 102.95160162 306.31640625 100.93359375 C311.47802573 94.60409423 316.60537654 88.25538406 321.625 81.8125 C325.65982038 76.63627425 329.83021471 71.59741809 334.09082031 66.60595703 C337.40222082 62.72293164 340.61568518 58.77645142 343.78515625 54.77734375 C346.6009978 51.24636784 349.45802216 47.74975881 352.3125 44.25 C356.47264577 39.14632838 360.57977666 34.0076568 364.625 28.8125 C369.44558987 22.62562324 374.39946569 16.53989923 379.66215515 10.72085571 C381.10158487 9.00323147 381.10158487 9.00323147 382.04060364 6.74667358 C383.70882963 3.64348957 385.09178709 2.03580002 388 0 C394.9134267 -1.7404269 402.40265258 -1.04279929 409.46484375 -0.87890625 C411.58473505 -0.8621094 413.70466142 -0.84930331 415.82460022 -0.84031677 C421.39040464 -0.80603737 426.95407773 -0.71770472 432.51904297 -0.61798096 C438.20315723 -0.52572878 443.88761769 -0.48476949 449.57226562 -0.43945312 C460.71577756 -0.34307949 471.8577112 -0.18957935 483 0 C481.41767089 4.25769409 479.58783674 6.82183002 476.4375 10.125 C473.05401242 13.73356545 469.79286054 17.39705267 466.6875 21.25 C463.05238864 25.7536778 459.30438793 30.13984728 455.5 34.5 C451.00234349 39.65835476 446.61003945 44.88157837 442.30078125 50.19921875 C438.62227613 54.67712736 434.82960344 59.05599295 431.05078125 63.44921875 C424.82477633 70.68816124 418.6391376 77.95865909 412.625 85.375 C408.45843577 90.49733524 404.13798719 95.47417378 399.79956055 100.45043945 C395.87510903 104.96215363 392.06573217 109.55325555 388.30078125 114.19921875 C384.61993587 118.6799762 380.82486807 123.06159186 377.04296875 127.45703125 C372.78648075 132.40558716 368.57832994 137.3947854 364.36767578 142.38232422 C362.97540583 144.02908979 361.57994527 145.67310067 360.18359375 147.31640625 C355.95146367 152.30026248 351.74262602 157.29559272 347.625 162.375 C343.45843577 167.49733524 339.13798719 172.47417378 334.79956055 177.45043945 C330.87510903 181.96215363 327.06573217 186.55325555 323.30078125 191.19921875 C319.62227613 195.67712736 315.82960344 200.05599295 312.05078125 204.44921875 C305.80572679 211.71031003 299.6036885 219.00553429 293.5625 226.4375 C292.84852051 227.26080811 292.13454102 228.08411621 291.39892578 228.93237305 C288.88571376 231.94592807 288.88571376 231.94592807 287.18408203 235.55297852 C284.5912176 240.17273099 281.7655588 243.54071047 277 246 C266.18813471 248.51531067 254.80904564 247.81796379 243.78771973 247.54418945 C240.48717193 247.48526563 237.18992385 247.51555665 233.88918781 247.54668427 C230.68923161 247.5673765 227.49121303 247.53831688 224.2915554 247.49391174 C222.77235745 247.47731551 221.25294599 247.47411983 219.73369789 247.48521423 C207.98921859 247.52184266 207.98921859 247.52184266 203.09513855 243.77764893 C200.8321197 241.28674639 198.88962628 238.78019547 197 236 C196.19949219 235.04609375 195.39898438 234.0921875 194.57421875 233.109375 C193.64029297 231.94148438 193.64029297 231.94148438 192.6875 230.75 C189.23157641 226.48268565 185.70613096 222.28696316 182.125 218.125 C174.87410909 209.69483065 167.62918068 201.26221369 160.625 192.625 C156.45843577 187.50266476 152.13798719 182.52582622 147.79956055 177.54956055 C143.87510903 173.03784637 140.06573217 168.44674445 136.30078125 163.80078125 C133.61941084 160.53670217 130.87937137 157.3274928 128.125 154.125 C127.61791504 153.53541504 127.11083008 152.94583008 126.58837891 152.33837891 C126.08097168 151.74847168 125.57356445 151.15856445 125.05078125 150.55078125 C118.82477633 143.31183876 112.6391376 136.04134091 106.625 128.625 C102.45843577 123.50266476 98.13798719 118.52582622 93.79956055 113.54956055 C89.87510903 109.03784637 86.06573217 104.44674445 82.30078125 99.80078125 C79.11964796 95.92833207 75.85246445 92.13271217 72.58398438 88.33398438 C67.81293833 82.78892833 63.08651595 77.20716321 58.36767578 71.61767578 C56.97540583 69.97091021 55.57994527 68.32689933 54.18359375 66.68359375 C49.95146367 61.69973752 45.74262602 56.70440728 41.625 51.625 C37.45843577 46.50266476 33.13798719 41.52582622 28.79956055 36.54956055 C24.885381 32.04965546 21.08418689 27.47218176 17.33203125 22.8359375 C13.97788374 18.75702445 10.52907773 14.76112458 7.07202148 10.76928711 C0 2.57945648 0 2.57945648 0 0 Z " fill="#B8D6E2" transform="translate(440,1079)"/>
<path d="M0 0 C137.94 0 275.88 0 418 0 C418 22.11 418 44.22 418 67 C344.74 67.33 271.48 67.66 196 68 C202.27 72.62 208.54 77.24 215 82 C218.6762608 84.78088285 222.34644062 87.56502669 226 90.375 C227.66570038 91.65490436 229.3323699 92.93354845 231 94.2109375 C231.75837001 94.80604378 232.51674002 95.40115005 233.29809093 96.01428986 C235.95674204 98.04620343 235.95674204 98.04620343 238.85062885 99.63628387 C246.39042908 104.18697252 246.39042908 104.18697252 247.99512291 108.95976257 C248.35500627 112.60301891 248.3618164 116.10026494 248.2487793 119.75976562 C248.24567197 121.1402359 248.24742702 122.52072432 248.25364685 123.90118408 C248.25678958 127.62947852 248.19236523 131.35384049 248.11533332 135.08122444 C248.04632874 138.98342791 248.04008897 142.8857327 248.02705383 146.78845215 C247.99293257 154.16973839 247.90276504 161.54922162 247.79220945 168.92971563 C247.64598616 178.90905541 247.58683595 188.88889214 247.52268505 198.86903381 C247.41940723 214.58070509 247.20023575 230.28857253 247 246 C221.92 246 196.84 246 171 246 C171 186.93 171 127.86 171 67 C114.57 67 58.14 67 0 67 C0 44.89 0 22.78 0 0 Z " fill="#B8D6E2" transform="translate(1478,1079)"/>
<path d="M0 0 C25.08 0 50.16 0 76 0 C76 81.18 76 162.36 76 246 C50.92 246 25.84 246 0 246 C0 164.82 0 83.64 0 0 Z " fill="#B8D6E2" transform="translate(1943,1079)"/>
</svg>
